<?xml version="1.0" standalone="no"?>
<!DOCTYPE svg PUBLIC "-//W3C//DTD SVG 20010904//EN"
 "http://www.w3.org/TR/2001/REC-SVG-20010904/DTD/svg10.dtd">
<svg version="1.0" xmlns="http://www.w3.org/2000/svg"
 width="512.000000pt" height="512.000000pt" viewBox="0 0 512.000000 512.000000"
 preserveAspectRatio="xMidYMid meet">
<metadata>
Created by potrace 1.11, written by Peter Selinger 2001-2013
</metadata>
<g transform="translate(0.000000,512.000000) scale(0.100000,-0.100000)"
fill="#000000" stroke="none">
<path d="M2273 4145 c-5 -14 11 -52 51 -116 14 -25 -21 -160 -55 -213 -33 -49
-77 -82 -164 -121 -121 -54 -151 -71 -197 -107 -26 -21 -51 -38 -57 -38 -6 0
-23 24 -37 53 -48 96 -141 193 -220 231 -51 24 -98 44 -129 54 -24 7 -29 14
-27 33 12 92 13 119 3 119 -6 0 -15 -9 -21 -20 -6 -12 -48 -66 -93 -120 -158
-191 -200 -249 -222 -304 -34 -84 -37 -102 -20 -142 8 -20 15 -48 15 -62 0
-25 0 -25 -69 -18 -73 7 -153 -7 -221 -40 -41 -20 -120 -93 -120 -111 0 -18 4
-17 46 12 71 49 124 52 440 29 102 -7 227 17 249 49 8 11 12 24 9 28 -3 5 -39
6 -82 3 -110 -9 -141 2 -169 56 -28 56 -30 129 -4 186 21 47 147 213 168 221
47 18 219 -62 294 -137 55 -56 129 -187 144 -255 4 -16 16 -57 26 -91 25 -79
17 -101 -53 -136 -75 -39 -145 -68 -160 -68 -16 0 -170 -43 -258 -72 -187 -61
-284 -170 -339 -378 -30 -112 -30 -111 -87 -141 -38 -19 -50 -31 -52 -52 -3
-27 -2 -27 56 -27 76 0 153 -23 212 -65 50 -35 60 -35 60 -3 0 27 -65 122 -97
143 -23 16 -25 21 -20 64 12 91 68 200 139 267 74 71 132 95 373 160 55 14
136 44 179 65 44 22 85 38 92 35 6 -2 15 -17 18 -33 10 -41 56 -155 72 -178
18 -25 18 -43 -1 -79 -31 -60 -12 -72 49 -31 63 43 92 54 157 62 78 10 88 29
30 61 -27 15 -56 22 -95 22 l-56 0 -26 58 c-33 75 -70 187 -79 237 -4 22 -16
69 -26 104 -30 99 -27 114 30 159 27 22 110 69 185 106 198 98 255 163 277
315 11 76 14 81 43 81 35 0 87 21 83 33 -2 7 -32 21 -67 33 -34 12 -74 31 -89
43 -14 11 -38 28 -54 36 -25 14 -28 14 -34 0z"/>
<path d="M2905 4038 c-7 -19 -21 -40 -29 -48 -9 -7 -16 -16 -16 -21 0 -18 -91
-128 -215 -259 -191 -202 -238 -267 -276 -380 -27 -79 -26 -223 1 -267 34 -57
51 -38 64 72 15 137 97 287 282 516 163 203 224 303 227 372 3 52 -19 60 -38
15z"/>
<path d="M3248 4019 c-66 -9 -98 -24 -98 -43 0 -18 22 -26 72 -26 45 0 100
-15 271 -71 83 -28 135 -39 176 -39 96 0 120 19 54 41 -21 7 -76 30 -123 51
-47 22 -104 48 -126 58 -23 11 -61 22 -85 25 -24 4 -53 8 -64 9 -11 2 -46 -1
-77 -5z"/>
<path d="M3158 3646 c-99 -35 -161 -89 -247 -212 -28 -41 -57 -72 -72 -76 -13
-4 -44 -13 -69 -20 -65 -19 -65 -43 0 -57 75 -16 139 -53 203 -115 61 -60 87
-70 87 -33 0 33 -31 108 -62 148 -16 20 -28 42 -28 50 0 29 108 146 163 178
73 42 142 50 302 35 72 -7 157 -13 190 -13 33 -1 93 -11 134 -23 107 -32 166
-92 246 -252 48 -95 74 -134 131 -194 l71 -74 6 -78 c3 -43 10 -87 16 -99 18
-33 39 -25 51 19 5 22 15 59 21 83 11 46 47 106 88 150 25 28 26 29 7 43 -26
19 -39 18 -68 -5 -36 -29 -72 -35 -91 -16 -44 44 -91 113 -162 238 -61 109
-90 149 -138 192 -58 53 -60 55 -43 74 32 35 12 41 -137 41 -94 0 -182 7 -262
20 -163 27 -253 26 -337 -4z"/>
<path d="M2781 3041 c-6 -11 -11 -28 -11 -39 0 -30 -54 -142 -96 -199 -77
-103 -382 -262 -644 -333 -200 -55 -253 -31 -364 164 -52 92 -117 165 -168
191 -31 15 -58 20 -58 10 0 -11 30 -63 37 -67 13 -5 47 -58 121 -189 39 -69
78 -132 87 -139 29 -24 17 -59 -45 -129 -142 -161 -344 -301 -523 -366 -95
-34 -156 -31 -244 14 -101 51 -130 95 -174 274 -17 67 -46 154 -65 193 -37 75
-85 131 -103 119 -13 -7 -8 -30 29 -145 15 -47 31 -107 34 -135 11 -75 45
-195 67 -234 11 -18 38 -55 61 -82 23 -27 38 -52 35 -56 -9 -9 -152 35 -212
65 -27 13 -81 57 -120 96 -133 137 -186 300 -184 566 0 133 26 330 50 395 2 6
0 12 -6 15 -5 3 -11 -11 -13 -30 -2 -19 -12 -44 -22 -55 -10 -11 -25 -51 -33
-90 -8 -38 -20 -88 -26 -110 -6 -22 -11 -109 -11 -194 0 -135 3 -165 26 -249
41 -150 101 -262 185 -343 49 -48 148 -119 166 -119 6 0 32 -10 59 -22 43 -20
66 -22 194 -22 132 0 153 2 235 29 50 15 99 34 110 41 20 12 57 5 69 -14 3 -5
11 -45 17 -88 6 -44 24 -119 41 -169 98 -301 271 -485 538 -572 103 -34 365
-44 480 -18 140 32 125 34 193 -32 108 -105 183 -151 522 -321 132 -67 276
-145 320 -174 110 -72 196 -161 235 -242 l31 -66 200 0 c222 0 225 1 190 61
-48 84 -81 237 -81 386 0 76 8 83 125 108 44 9 85 20 90 24 6 4 26 14 45 21
56 22 148 90 197 144 78 87 121 164 163 291 26 80 40 100 94 127 21 11 68 50
105 86 84 85 148 210 185 363 34 139 37 362 7 480 -10 41 -22 90 -25 110 -4
21 -14 43 -23 50 -15 13 -16 9 -10 -41 16 -122 18 -375 5 -455 l-13 -80 -61
-3 c-66 -3 -129 18 -188 63 -18 14 -36 25 -39 25 -3 0 -43 17 -89 39 -120 56
-185 75 -253 75 -87 0 -185 -40 -275 -113 -22 -18 -34 -20 -91 -14 -72 6 -99
-8 -63 -33 61 -43 117 -115 129 -166 11 -44 31 -54 50 -24 13 20 15 38 10 94
l-7 69 38 23 c152 94 262 92 476 -9 48 -23 96 -41 107 -41 10 0 55 -15 98 -34
43 -19 86 -37 96 -40 26 -8 21 -36 -19 -96 -127 -195 -342 -284 -530 -220 -65
23 -124 59 -124 76 0 21 114 86 183 104 20 6 37 17 37 25 0 20 -58 29 -154 23
-83 -6 -122 -19 -206 -73 -46 -30 -62 -32 -338 -50 -129 -8 -271 -22 -315 -30
-135 -27 -298 -66 -360 -86 -33 -11 -78 -22 -101 -25 -41 -6 -44 -4 -78 37
-49 60 -83 117 -97 162 -9 27 -18 37 -29 35 -15 -3 -17 -18 -16 -98 1 -89 3
-100 37 -167 l37 -73 -30 -27 c-42 -38 -152 -100 -227 -128 -162 -61 -373 -91
-381 -54 -1 8 29 51 68 95 110 123 150 189 150 247 0 55 -25 96 -78 129 -47
29 -61 11 -28 -37 28 -40 33 -86 16 -131 -6 -15 -57 -73 -114 -128 -57 -56
-116 -118 -131 -138 -31 -43 -43 -45 -121 -22 -210 61 -376 242 -447 489 -37
127 -57 286 -41 317 30 58 247 206 444 303 52 26 106 52 120 60 23 12 154 64
320 128 36 14 106 39 155 56 121 41 328 114 395 139 30 12 74 28 98 37 228 83
415 218 445 323 28 95 2 95 -94 -1 -138 -136 -318 -205 -391 -148 -23 19 -25
24 -20 98 6 115 -19 187 -47 134z"/>
<path d="M3721 2918 c-5 -13 -12 -52 -16 -88 -12 -108 -45 -243 -70 -286 -29
-49 -85 -102 -150 -139 -83 -49 -279 -122 -386 -144 -24 -5 -73 -16 -109 -24
-36 -9 -110 -25 -165 -37 -55 -11 -138 -30 -185 -40 -47 -10 -105 -23 -130
-29 -250 -52 -487 -151 -636 -263 -58 -43 -77 -46 -119 -18 -33 22 -52 25 -75
10 -12 -7 -9 -16 19 -50 35 -43 74 -125 85 -177 16 -72 50 -46 60 46 l7 59 67
45 c141 96 225 131 582 242 64 20 157 35 175 29 23 -9 102 -111 131 -170 14
-30 30 -54 35 -54 33 0 29 127 -6 202 -31 65 -30 65 220 123 123 29 209 55
328 99 37 14 74 23 83 19 18 -7 48 -63 63 -120 10 -37 9 -48 -8 -80 -20 -39
-80 -108 -116 -134 -55 -38 -122 -171 -110 -217 l6 -25 28 29 c15 16 36 43 47
59 20 32 34 49 131 157 106 118 130 243 66 340 l-28 41 40 31 c96 75 159 162
171 237 12 71 20 75 115 60 46 -7 98 -19 114 -26 17 -8 64 -27 105 -45 41 -17
89 -37 105 -44 168 -78 258 -97 352 -77 61 14 123 49 160 91 38 43 23 68 -22
36 -20 -14 -102 -39 -164 -50 -53 -10 -199 30 -334 91 -177 80 -239 101 -309
108 -113 11 -105 3 -114 107 -9 93 -25 122 -43 76z"/>
<path d="M4831 2505 c1 -11 5 -31 9 -45 8 -24 8 -24 9 5 0 17 -4 37 -9 45 -8
12 -10 11 -9 -5z"/>
</g>
</svg>
