<?xml version="1.0" standalone="no"?>
<!DOCTYPE svg PUBLIC "-//W3C//DTD SVG 20010904//EN"
 "http://www.w3.org/TR/2001/REC-SVG-20010904/DTD/svg10.dtd">
<svg version="1.0" xmlns="http://www.w3.org/2000/svg"
 width="512.000000pt" height="512.000000pt" viewBox="0 0 512.000000 512.000000"
 preserveAspectRatio="xMidYMid meet">
<metadata>
Created by potrace 1.11, written by Peter Selinger 2001-2013
</metadata>
<g transform="translate(0.000000,512.000000) scale(0.100000,-0.100000)"
fill="#000000" stroke="none">
<path d="M3040 4930 c0 -31 211 -884 221 -895 6 -6 14 -4 23 5 8 8 109 197
225 420 164 316 208 407 198 416 -9 9 -591 75 -654 74 -7 0 -13 -9 -13 -20z"/>
<path d="M2162 4634 c-153 -122 -232 -192 -230 -202 3 -16 652 -440 676 -441
6 -1 12 7 12 16 0 21 -187 760 -200 791 -5 12 -13 22 -17 22 -5 0 -113 -84
-241 -186z"/>
<path d="M4191 4621 c-24 -44 -312 -695 -317 -717 -5 -19 -2 -24 12 -23 11 0
188 44 394 97 287 74 376 101 378 113 4 20 -417 543 -441 547 -8 2 -20 -6 -26
-17z"/>
<path d="M1558 3883 c-17 -43 -22 -168 -8 -219 7 -25 29 -62 49 -83 27 -29
1310 -964 1378 -1005 23 -13 53 13 53 46 0 78 -9 86 -709 592 -362 262 -671
489 -686 504 -41 41 -58 82 -59 139 -1 29 -2 53 -4 53 -1 0 -8 -12 -14 -27z"/>
<path d="M910 3613 c-7 -16 -15 -66 -17 -113 -4 -67 0 -97 16 -142 11 -32 17
-58 14 -58 -3 0 -47 21 -97 47 -82 42 -98 47 -161 47 -59 1 -77 -3 -116 -26
-57 -33 -94 -76 -125 -143 -19 -40 -24 -67 -24 -133 0 -134 36 -194 163 -275
l81 -51 -62 -11 c-79 -15 -149 -58 -189 -119 -43 -63 -56 -116 -51 -201 8
-123 50 -181 197 -269 60 -36 118 -74 130 -83 21 -18 21 -18 -36 -20 -110 -5
-195 -67 -245 -180 -28 -61 -30 -188 -4 -247 41 -96 22 -83 736 -518 783 -477
1267 -758 1433 -831 295 -130 712 -150 1007 -49 72 25 211 95 280 142 30 20
75 44 100 54 259 100 534 376 684 686 84 172 157 439 156 569 -1 43 -3 38 -39
-69 -111 -333 -281 -612 -504 -827 -221 -213 -374 -281 -649 -290 -164 -6
-255 4 -423 47 -197 50 -442 153 -619 259 -270 164 -1503 1065 -1668 1219 -84
79 -118 144 -118 224 0 50 4 62 31 93 53 59 111 87 193 93 58 3 82 0 117 -15
24 -11 298 -203 608 -426 332 -240 572 -407 585 -407 80 0 53 120 -44 193 -25
18 -347 250 -717 516 -460 329 -678 492 -692 515 -30 47 -45 124 -36 182 6 41
15 57 54 95 74 72 176 96 274 67 25 -8 306 -204 761 -534 397 -286 727 -519
734 -516 38 14 20 101 -31 149 -17 18 -378 282 -802 588 -424 307 -783 569
-799 584 -39 36 -68 104 -69 163 0 26 -1 48 -2 48 -1 0 -8 -12 -15 -27z"/>
<path d="M3473 3530 c-16 -45 -23 -93 -24 -157 l-3 -92 -24 20 c-22 17 -68 72
-185 222 -73 94 -259 58 -342 -65 -27 -41 -32 -55 -22 -64 23 -22 792 -569
881 -628 l90 -58 -37 50 c-64 86 -127 246 -127 320 0 29 -14 55 -55 107 -36
44 -85 138 -105 200 -7 22 -16 78 -19 125 l-6 85 -22 -65z"/>
</g>
</svg>
